# xmcd CD database file
#
# Track frame offsets:
#	150
#	19330
#	37750
#	57640
#	73810
#	100005
#	120547
#	142542
#	167280
#	185302
#
# Disc length: 2712 seconds
#
# Revision: 3
# Processed by: cddbd v1.5.2PL0 Copyright (c) Steve Scherf et al.
# Submitted via: CDex 1.40Release
#
DISCID=780a960a
DTITLE=Kane Roberts - Saints And Sinners
DYEAR=1991
DGENRE=Rock
TTITLE0=Wild Nights
TTITLE1=Twisted
TTITLE2=Does Anybody Really Fall In Love Anymore?
TTITLE3=Dance Little Sister
TTITLE4=Rebel Heart
TTITLE5=You Always Want It
TTITLE6=Fighter
TTITLE7=I'm Not Lookin' For An Angel
TTITLE8=Too Far Gone
TTITLE9=It's Only Over For You
EXTD=YEAR: 1991 ID3G: 17
EXTT0=
EXTT1=
EXTT2=
EXTT3=
EXTT4=
EXTT5=
EXTT6=
EXTT7=
EXTT8=
EXTT9=
PLAYORDER=
